<svg width="16" height="16" viewBox="0 0 16 16" fill="none" xmlns="http://www.w3.org/2000/svg">
<path d="M11.4396 0.5H4.56036C2.32144 0.5 0.5 2.32144 0.5 4.56036V11.4397C0.5 13.6785 2.32144 15.5 4.56036 15.5H11.4397C13.6785 15.5 15.5 13.6785 15.5 11.4397V4.56036C15.5 2.32144 13.6785 0.5 11.4396 0.5V0.5ZM14.6206 11.4397C14.6206 13.1936 13.1936 14.6206 11.4396 14.6206H4.56036C2.80632 14.6206 1.37936 13.1936 1.37936 11.4397V4.56036C1.37936 2.80632 2.80632 1.37936 4.56036 1.37936H11.4397C13.1936 1.37936 14.6206 2.80632 14.6206 4.56036V11.4397Z" fill="#828282"/>
<path d="M8 3.89856C5.73842 3.89856 3.89856 5.73842 3.89856 8C3.89856 10.2616 5.73842 12.1014 8 12.1014C10.2616 12.1014 12.1014 10.2616 12.1014 8C12.1014 5.73842 10.2616 3.89856 8 3.89856ZM8 11.2221C6.22342 11.2221 4.77792 9.77669 4.77792 8C4.77792 6.22342 6.22342 4.77792 8 4.77792C9.77669 4.77792 11.2221 6.22342 11.2221 8C11.2221 9.77669 9.77669 11.2221 8 11.2221Z" fill="#828282"/>
<path d="M12.1995 2.44196C11.5311 2.44196 10.9875 2.98566 10.9875 3.65388C10.9875 4.32222 11.5311 4.86592 12.1995 4.86592C12.8678 4.86592 13.4115 4.32222 13.4115 3.65388C13.4115 2.98555 12.8678 2.44196 12.1995 2.44196ZM12.1995 3.98645C12.0161 3.98645 11.8669 3.83722 11.8669 3.65388C11.8669 3.47043 12.0161 3.32132 12.1995 3.32132C12.3829 3.32132 12.5322 3.47043 12.5322 3.65388C12.5322 3.83722 12.3829 3.98645 12.1995 3.98645Z" fill="#828282"/>
</svg>
