<?xml version="1.0" ?><svg viewBox="0 0 22.12 22.071" xmlns="http://www.w3.org/2000/svg"><defs><style>.cls-1{fill:#c4c4c4;}</style></defs><g data-name="Layer 2" id="Layer_2"><g data-name="Layer 1" id="Layer_1-2"><path class="cls-1" d="M9.5,20.062h3.126a.335.335,0,0,1,0,.67H9.5A.335.335,0,0,1,9.5,20.062Zm12.615.335a1.676,1.676,0,0,1-1.674,1.674H1.685A1.676,1.676,0,0,1,.01,20.4a9.566,9.566,0,0,1,.044-1.506L1.8,15.842V4.321A1.677,1.677,0,0,1,3.471,2.646H6.492a5.271,5.271,0,0,1,9.142,0h3.021a1.677,1.677,0,0,1,1.674,1.675V15.843l1.742,3.048A10.591,10.591,0,0,1,22.115,20.4ZM9.814,9.614a.334.334,0,0,1,.244.322v1.641c.545.046,1.334-.18,1.34.335s-.794.289-1.34.335v1.005a1,1,0,0,0,2.01,0V9.936a.334.334,0,0,1,.244-.322,4.576,4.576,0,1,0-2.5,0ZM2.467,15.6H19.659V4.321a1.006,1.006,0,0,0-1-1H15.95a5.272,5.272,0,0,1-3.212,6.867v3.069c0,.038-.009.074-.012.112h4.7V6.107a.336.336,0,0,1,.671,0V13.7a.336.336,0,0,1-.335.335H12.535a1.676,1.676,0,0,1-2.944,0H4.365a.336.336,0,0,1-.336-.335V6.107a.336.336,0,0,1,.671,0v7.257H9.4c0-.038-.012-.074-.012-.112V10.183A5.272,5.272,0,0,1,6.176,3.316h-2.7a1,1,0,0,0-1,1ZM.922,18.722H21.2l-1.4-2.456H2.325Zm20.523.67H.68v1a1.006,1.006,0,0,0,1,1.005H20.441a1.006,1.006,0,0,0,1-1.005ZM11.063,1.976a3.238,3.238,0,0,1,0,6.475A3.238,3.238,0,0,1,11.063,1.976Zm0,5.805a2.568,2.568,0,0,0,0-5.135A2.568,2.568,0,0,0,11.063,7.781Z" id="seo"/></g></g></svg>
